<svg width="50" height="50" viewBox="0 0 50 50" fill="none" xmlns="http://www.w3.org/2000/svg">
<path fill-rule="evenodd" clip-rule="evenodd" d="M0 8C0 3.58172 3.58172 0 8 0H42C46.4183 0 50 3.58172 50 8V42C50 46.4183 46.4183 50 42 50H8C3.58172 50 0 46.4183 0 42V8ZM30.2455 24.8135L22.2778 32.6364L38.5568 24.0301C39.7349 23.4073 40.8163 22.6167 41.7672 21.6831L43.6425 19.8419C45.0794 18.4311 45.8889 16.502 45.8889 14.4883C45.8889 12.9853 45.4375 11.5171 44.5932 10.2737L44.1056 9.55552C43.4474 8.58619 42.629 7.73594 41.6856 7.04119L41.4373 6.85836C38.9444 5.02267 35.8437 4.21009 32.7709 4.58721L29.6217 4.9737C27.5612 5.22658 25.6416 6.15189 24.1603 7.60628L23.5915 8.16469C22.7322 9.00842 22.1206 10.0716 21.8235 11.2387L21.3994 12.904C21.0833 14.1454 21.4512 15.4612 22.3653 16.3586C23.1833 17.1618 24.3352 17.527 25.4665 17.3418L30.599 16.502C31.4796 16.3579 32.3763 16.6421 33.013 17.2673C34.0211 18.2571 34.134 19.8427 33.2765 20.9654L30.9221 24.0474C30.715 24.3185 30.4889 24.5745 30.2455 24.8135ZM30.6111 17.6358L22.6434 25.4586C22.3999 25.6976 22.1738 25.9536 21.9668 26.2247L19.6124 29.3068C18.7548 30.4294 18.8678 32.0151 19.8759 33.0048C20.5126 33.63 21.4093 33.9142 22.2899 33.7701L27.4224 32.9303C28.5537 32.7452 29.7056 33.1103 30.5236 33.9135C31.4377 34.8109 31.8055 36.1267 31.4895 37.3681L31.0654 39.0334C30.7682 40.2005 30.1567 41.2637 29.2974 42.1074L28.7286 42.6659C27.2473 44.1202 25.3277 45.0455 23.2672 45.2984L20.118 45.6849C17.0452 46.062 13.9445 45.2495 11.4516 43.4138L11.2033 43.2309C10.2598 42.5362 9.44148 41.6859 8.78329 40.7166L8.29566 39.9985C7.45138 38.7551 7 37.2868 7 35.7838C7 33.7702 7.80947 31.841 9.24636 30.4302L11.1217 28.589C12.0726 27.6554 13.154 26.8649 14.3321 26.242L30.6111 17.6358Z" fill="white"/>
</svg>
